<svg width="20" height="20" viewBox="0 0 28 24" fill="none" xmlns="http://www.w3.org/2000/svg">
<g filter="url(#filter0_d_260_19)">
<path d="M23.9926 7.27939C24.0034 7.80652 23.491 8.23012 22.9007 8.24223L21.7896 8.26502L21.9101 12.956C21.9117 13.035 21.9064 13.1143 21.8976 13.1935L21.9073 13.668C21.9206 14.3152 21.3098 14.8521 20.5424 14.8678L19.9868 14.8792C19.9486 14.88 19.9104 14.8808 19.8722 14.8787C19.8236 14.8826 19.775 14.8836 19.7264 14.8846L18.5978 14.9048L17.7644 14.9219C16.997 14.9376 16.3647 14.4262 16.3514 13.779L16.2986 11.2019C16.288 10.6835 15.7828 10.2749 15.1682 10.2876L12.9459 10.3331C12.3313 10.3457 11.8433 10.7747 11.8539 11.293L11.9068 13.8701C11.9201 14.5173 11.3092 15.0543 10.5418 15.07L8.60078 15.1098C8.54869 15.1109 8.49655 15.109 8.4444 15.1071C8.40279 15.1109 8.36118 15.1147 8.31952 15.1156L7.76393 15.127C6.99653 15.1427 6.36423 14.6312 6.35095 13.984L6.28369 10.7041C6.28315 10.6778 6.28255 10.6485 6.28548 10.6221L6.24362 8.58089L5.13246 8.60368C4.50743 8.6165 4.01289 8.21648 4.00202 7.68642C3.99661 7.42285 4.09598 7.18644 4.33484 6.97646L13.1004 0.25168C13.3393 0.0417004 13.6165 0.00671865 13.8595 0.00173397C14.1026 -0.0032507 14.3816 0.0496225 14.5929 0.191775L23.5963 6.58439C23.8782 6.78369 24.0219 7.01512 23.9926 7.27939Z" fill="white"/>
</g>
<defs>
<filter id="filter0_d_260_19" x="0.00195312" y="0.000976562" width="27.9941" height="23.126" filterUnits="userSpaceOnUse" color-interpolation-filters="sRGB">
<feFlood flood-opacity="0" result="BackgroundImageFix"/>
<feColorMatrix in="SourceAlpha" type="matrix" values="0 0 0 0 0 0 0 0 0 0 0 0 0 0 0 0 0 0 127 0" result="hardAlpha"/>
<feOffset dy="4"/>
<feGaussianBlur stdDeviation="2"/>
<feComposite in2="hardAlpha" operator="out"/>
<feColorMatrix type="matrix" values="0 0 0 0 0 0 0 0 0 0 0 0 0 0 0 0 0 0 0.25 0"/>
<feBlend mode="normal" in2="BackgroundImageFix" result="effect1_dropShadow_260_19"/>
<feBlend mode="normal" in="SourceGraphic" in2="effect1_dropShadow_260_19" result="shape"/>
</filter>
</defs>
</svg>
