<svg width="20" height="20" viewBox="0 0 10 13" fill="none" xmlns="http://www.w3.org/2000/svg">
<path d="M9.38 5.00012H6.47C5.66 5.00012 5 4.34012 5 3.53012V0.620117C5 0.340117 5.22 0.120117 5.5 0.120117C5.78 0.120117 6 0.340117 6 0.620117V3.53012C6 3.79012 6.21 4.00012 6.47 4.00012H9.38C9.66 4.00012 9.88 4.22012 9.88 4.50012C9.88 4.78012 9.66 5.00012 9.38 5.00012ZM6 13.0001H1C0.72 13.0001 0.5 12.7801 0.5 12.5001C0.5 12.2201 0.72 12.0001 1 12.0001H6C6.28 12.0001 6.5 12.2201 6.5 12.5001C6.5 12.7801 6.28 13.0001 6 13.0001ZM6 10.0001H1C0.72 10.0001 0.5 9.78012 0.5 9.50012C0.5 9.22012 0.72 9.00012 1 9.00012H6C6.28 9.00012 6.5 9.22012 6.5 9.50012C6.5 9.78012 6.28 10.0001 6 10.0001ZM3 7.00012H1C0.72 7.00012 0.5 6.78012 0.5 6.50012C0.5 6.22012 0.72 6.00012 1 6.00012H3C3.28 6.00012 3.5 6.22012 3.5 6.50012C3.5 6.78012 3.28 7.00012 3 7.00012Z" fill="white"/>
</svg>
