<svg width="20" height="20" viewBox="0 0 18 20" fill="none" xmlns="http://www.w3.org/2000/svg">
<path d="M7.14615 1.24792C7.29556 0.878636 7.55185 0.562381 7.88217 0.339697C8.21249 0.117013 8.60178 -0.00195313 9.00015 -0.00195312C9.39852 -0.00195312 9.78781 0.117013 10.1181 0.339697C10.4484 0.562381 10.7047 0.878636 10.8541 1.24792C12.3332 1.65416 13.6378 2.53491 14.5675 3.75479C15.4973 4.97467 16.0006 6.46614 16.0002 7.99992V12.6969L17.8322 15.4449C17.9326 15.5955 17.9903 15.7706 17.9991 15.9514C18.0079 16.1322 17.9674 16.3121 17.882 16.4717C17.7966 16.6313 17.6695 16.7648 17.5142 16.8578C17.3588 16.9508 17.1812 17 17.0002 16.9999H12.4651C12.3447 17.833 11.9282 18.5949 11.2919 19.1459C10.6555 19.6969 9.84191 20.0001 9.00015 20.0001C8.15839 20.0001 7.34481 19.6969 6.70845 19.1459C6.07209 18.5949 5.65555 17.833 5.53515 16.9999H1.00015C0.819107 17 0.641453 16.9508 0.486141 16.8578C0.330829 16.7648 0.203685 16.6313 0.118276 16.4717C0.032866 16.3121 -0.00760575 16.1322 0.00117785 15.9514C0.00996145 15.7706 0.067671 15.5955 0.16815 15.4449L2.00015 12.6969V7.99992C2.00015 4.77592 4.18015 2.05992 7.14615 1.24792ZM7.58615 16.9999C7.68943 17.2926 7.88093 17.546 8.13427 17.7252C8.38761 17.9045 8.69031 18.0007 9.00065 18.0007C9.31099 18.0007 9.61369 17.9045 9.86703 17.7252C10.1204 17.546 10.3119 17.2926 10.4151 16.9999H7.58615ZM9.00015 2.99992C7.67407 2.99992 6.4023 3.52671 5.46462 4.46439C4.52693 5.40207 4.00015 6.67384 4.00015 7.99992V12.9999C4.00019 13.1975 3.94174 13.3906 3.83215 13.5549L2.86915 14.9999H15.1301L14.1671 13.5549C14.0579 13.3905 13.9998 13.1974 14.0001 12.9999V7.99992C14.0001 6.67384 13.4734 5.40207 12.5357 4.46439C11.598 3.52671 10.3262 2.99992 9.00015 2.99992Z" fill="white"/>
</svg>
