<svg width="20" height="20" viewBox="0 0 20 15" fill="none" xmlns="http://www.w3.org/2000/svg">
<path d="M19.7359 9.40662L18.1915 8.46906C18.2646 8.15096 18.3023 7.82616 18.3023 7.50136C18.3023 7.17656 18.2646 6.85176 18.1915 6.53366L19.7359 5.59609C19.8524 5.52528 19.9358 5.43097 19.9749 5.3257C20.0141 5.22043 20.0072 5.10919 19.9552 5.00676L19.934 4.96323C19.5088 4.11946 18.8721 3.33728 18.0547 2.65448L18.0123 2.61932C17.9131 2.53654 17.7809 2.47702 17.6332 2.44863C17.4854 2.42024 17.3291 2.4243 17.1846 2.46027L15.2676 2.94412C14.5602 2.53226 13.7703 2.20746 12.9168 1.97977L12.5466 0.556679C12.5186 0.4496 12.4455 0.351089 12.3368 0.274234C12.2282 0.197379 12.0891 0.145819 11.9382 0.126404L11.8746 0.118033C10.6461 -0.0393442 9.35393 -0.0393442 8.12544 0.118033L8.06178 0.126404C7.91086 0.145819 7.77184 0.197379 7.66318 0.274234C7.55452 0.351089 7.48136 0.4496 7.45343 0.556679L7.08088 1.98647C6.23413 2.21422 5.44558 2.53884 4.74653 2.94747L2.81538 2.46027C2.67099 2.42401 2.51448 2.41981 2.36665 2.44822C2.21882 2.47663 2.08666 2.5363 1.98774 2.61932L1.9453 2.65448C1.12885 3.33777 0.492275 4.11982 0.0660269 4.96323L0.0448055 5.00676C-0.0613015 5.21604 0.0259421 5.45043 0.264093 5.59609L1.8274 6.5437C1.75431 6.85846 1.71894 7.17991 1.71894 7.49968C1.71894 7.82113 1.75431 8.14259 1.8274 8.45567L0.264093 9.40328C0.147601 9.47408 0.0642265 9.56839 0.0250554 9.67367C-0.0141157 9.77894 -0.00722707 9.89018 0.0448055 9.9926L0.0660269 10.0361C0.492813 10.8799 1.12474 11.6585 1.9453 12.3449L1.98774 12.38C2.0869 12.4628 2.21907 12.5223 2.36681 12.5507C2.51455 12.5791 2.67095 12.5751 2.81538 12.5391L4.74653 12.0519C5.44919 12.4621 6.23438 12.7869 7.08088 13.0129L7.45343 14.4427C7.48136 14.5498 7.55452 14.6483 7.66318 14.7251C7.77184 14.802 7.91086 14.8535 8.06178 14.873L8.12544 14.8813C9.36521 15.0396 10.6348 15.0396 11.8746 14.8813L11.9382 14.873C12.0891 14.8535 12.2282 14.802 12.3368 14.7251C12.4455 14.6483 12.5186 14.5498 12.5466 14.4427L12.9168 13.0196C13.77 12.7925 14.5644 12.4666 15.2676 12.0552L17.1846 12.5391C17.329 12.5754 17.4855 12.5796 17.6334 12.5512C17.7812 12.5227 17.9133 12.4631 18.0123 12.38L18.0547 12.3449C18.8753 11.6568 19.5072 10.8799 19.934 10.0361L19.9552 9.9926C20.0613 9.78667 19.9741 9.55228 19.7359 9.40662ZM16.5173 6.73121C16.5763 6.98402 16.6069 7.24353 16.6069 7.50303C16.6069 7.76254 16.5763 8.02204 16.5173 8.27485L16.3617 8.94621L18.1231 10.016C17.8561 10.4528 17.519 10.8663 17.1186 11.2483L14.9304 10.6975L14.19 11.1294C13.6265 11.4575 12.9993 11.7154 12.3202 11.8962L11.4218 12.1356L10.9998 13.7596C10.3338 13.8132 9.66147 13.8132 8.99552 13.7596L8.57345 12.1323L7.68215 11.8895C7.01014 11.7087 6.38529 11.4509 5.82646 11.1244L5.08607 10.6908L2.88376 11.2466C2.48291 10.8632 2.14808 10.4497 1.87928 10.0144L3.65952 8.93449L3.50625 8.2648C3.44966 8.01534 3.41901 7.75751 3.41901 7.50303C3.41901 7.24688 3.4473 6.99072 3.50625 6.74126L3.65952 6.07157L1.87928 4.9917C2.14572 4.55472 2.48291 4.14287 2.88376 3.75947L5.08607 4.31531L5.82646 3.88169C6.38529 3.55521 7.01014 3.29738 7.68215 3.11657L8.57581 2.87715L8.99788 1.24981C9.66046 1.19623 10.3372 1.19623 11.0021 1.24981L11.4242 2.8738L12.3226 3.11322C12.9993 3.29403 13.6289 3.55186 14.1924 3.88001L14.9328 4.31196L17.121 3.76114C17.5218 4.14454 17.8566 4.55807 18.1254 4.99337L16.3641 6.0632L16.5173 6.73121ZM10.0024 4.38898C7.71045 4.38898 5.8524 5.70826 5.8524 7.33561C5.8524 8.96295 7.71045 10.2822 10.0024 10.2822C12.2943 10.2822 14.1523 8.96295 14.1523 7.33561C14.1523 5.70826 12.2943 4.38898 10.0024 4.38898ZM11.8698 8.66159C11.6249 8.83601 11.3338 8.97432 11.0133 9.06856C10.6928 9.1628 10.3493 9.21112 10.0024 9.21074C9.29734 9.21074 8.63476 9.01486 8.13487 8.66159C7.88923 8.48768 7.69445 8.281 7.56172 8.05343C7.42899 7.82587 7.36093 7.58192 7.36147 7.33561C7.36147 6.83502 7.63735 6.36456 8.13487 6.00962C8.63476 5.65469 9.29734 5.46048 10.0024 5.46048C10.7074 5.46048 11.37 5.65469 11.8698 6.00962C12.1155 6.18354 12.3103 6.39022 12.443 6.61779C12.5757 6.84535 12.6438 7.0893 12.6432 7.33561C12.6432 7.8362 12.3674 8.30666 11.8698 8.66159Z" fill="white"/>
</svg>
