<svg width="20" height="20" viewBox="0 0 172 204" fill="none" xmlns="http://www.w3.org/2000/svg">
<path d="M170.24 57.76L114.24 1.76C113.116 0.63446 111.591 0.00140042 110 0H14C10.287 0 6.72602 1.475 4.10051 4.10051C1.475 6.72602 0 10.287 0 14V190C0 193.713 1.475 197.274 4.10051 199.899C6.72602 202.525 10.287 204 14 204H158C161.713 204 165.274 202.525 167.899 199.899C170.525 197.274 172 193.713 172 190V62C171.999 60.4092 171.366 58.8841 170.24 57.76ZM116 20.48L151.52 56H116V20.48ZM158 192H14C13.4696 192 12.9609 191.789 12.5858 191.414C12.2107 191.039 12 190.53 12 190V14C12 13.4696 12.2107 12.9609 12.5858 12.5858C12.9609 12.2107 13.4696 12 14 12H104V62C104 63.5913 104.632 65.1174 105.757 66.2426C106.883 67.3679 108.409 68 110 68H160V190C160 190.53 159.789 191.039 159.414 191.414C159.039 191.789 158.53 192 158 192Z" fill="white"/>
</svg>
