<svg width="20" height="20" viewBox="0 0 26 27" fill="none" xmlns="http://www.w3.org/2000/svg">
<path d="M13.81 2.29975C13.5839 2.10741 13.2968 2.0018 13 2.0018C12.7032 2.0018 12.4161 2.10741 12.19 2.29975L2.44 10.5877C2.30195 10.7052 2.1911 10.8513 2.11512 11.0158C2.03914 11.1804 1.99986 11.3595 2 11.5407V24.4997C2 24.6324 2.05268 24.7595 2.14645 24.8533C2.24021 24.9471 2.36739 24.9997 2.5 24.9997H7.5C7.63261 24.9997 7.75979 24.9471 7.85355 24.8533C7.94732 24.7595 8 24.6324 8 24.4997V17.4997C8 16.8367 8.26339 16.2008 8.73223 15.732C9.20107 15.2631 9.83696 14.9997 10.5 14.9997H15.504C15.8323 14.9997 16.1574 15.0644 16.4607 15.1901C16.764 15.3157 17.0396 15.4998 17.2718 15.732C17.5039 15.9641 17.6881 16.2397 17.8137 16.543C17.9393 16.8464 18.004 17.1714 18.004 17.4997V24.4997C18.004 24.6324 18.0567 24.7595 18.1504 24.8533C18.2442 24.9471 18.3714 24.9997 18.504 24.9997H23.5C23.6326 24.9997 23.7598 24.9471 23.8536 24.8533C23.9473 24.7595 24 24.6324 24 24.4997V11.5397C24 11.3587 23.9606 11.1797 23.8847 11.0154C23.8087 10.851 23.6979 10.7051 23.56 10.5877L13.81 2.29975ZM10.895 0.776748C11.4826 0.277211 12.2287 0.00292969 13 0.00292969C13.7713 0.00292969 14.5174 0.277211 15.105 0.776748L24.855 9.06375C25.2139 9.36883 25.5022 9.74827 25.6999 10.1758C25.8976 10.6033 26 11.0687 26 11.5397V24.4997C26 25.1628 25.7366 25.7987 25.2678 26.2675C24.7989 26.7364 24.163 26.9997 23.5 26.9997H18.504C17.841 26.9997 17.2051 26.7364 16.7362 26.2675C16.2674 25.7987 16.004 25.1628 16.004 24.4997V17.4997C16.004 17.3671 15.9513 17.24 15.8576 17.1462C15.7638 17.0524 15.6366 16.9997 15.504 16.9997H10.5C10.3674 16.9997 10.2402 17.0524 10.1464 17.1462C10.0527 17.24 10 17.3671 10 17.4997V24.4997C10 25.1628 9.73661 25.7987 9.26777 26.2675C8.79893 26.7364 8.16304 26.9997 7.5 26.9997H2.5C1.83696 26.9997 1.20107 26.7364 0.732233 26.2675C0.263392 25.7987 0 25.1628 0 24.4997V11.5397C2.6311e-05 11.0687 0.102438 10.6033 0.300144 10.1758C0.497849 9.74827 0.786123 9.36883 1.145 9.06375L10.895 0.776748Z" fill="white"/>
</svg>
